<svg id="svg" version="1.1" xmlns="http://www.w3.org/2000/svg" xmlns:xlink="http://www.w3.org/1999/xlink" width="400" height="375.92233009708735" viewBox="0, 0, 400,375.92233009708735"><g id="svgg"><path id="path0" d="M58.092 158.946 C 57.983 159.229,57.895 163.581,57.895 168.618 C 57.895 175.208,57.771 177.851,57.455 178.047 C 57.213 178.197,52.791 178.371,47.628 178.435 C 42.465 178.498,38.160 178.632,38.060 178.732 C 37.774 179.018,37.458 237.375,37.736 238.483 L 37.984 239.474 59.759 239.474 C 76.768 239.474,81.601 239.371,81.837 239.004 C 82.003 238.745,82.146 235.912,82.156 232.707 C 82.198 218.573,89.000 206.763,100.559 200.752 C 102.348 199.821,104.188 198.692,104.648 198.241 C 105.107 197.791,105.941 197.307,106.501 197.166 C 107.061 197.026,107.519 196.705,107.519 196.453 C 107.519 196.153,107.941 196.051,108.741 196.158 C 109.905 196.314,109.927 196.294,109.211 195.744 L 108.459 195.166 109.211 194.921 C 109.624 194.786,110.316 194.536,110.749 194.365 C 111.181 194.195,111.774 194.206,112.065 194.390 C 112.492 194.661,112.467 194.726,111.936 194.731 C 111.574 194.734,111.278 194.906,111.278 195.113 C 111.278 195.349,113.764 195.489,117.982 195.489 C 121.670 195.489,124.803 195.605,124.944 195.746 C 126.214 197.016,132.306 197.250,168.985 197.432 C 175.837 197.466,175.354 197.763,174.915 193.797 C 174.648 191.378,174.548 191.153,173.684 191.014 C 172.009 190.743,89.056 190.654,84.276 190.917 C 78.497 191.236,78.809 191.565,78.693 185.013 C 78.644 182.194,78.519 175.172,78.416 169.409 C 78.313 163.646,78.143 158.845,78.039 158.741 C 77.539 158.240,58.287 158.439,58.092 158.946 M113.853 202.083 C 104.172 203.464,96.032 209.244,91.861 217.703 C 90.961 219.526,90.226 221.173,90.226 221.363 C 90.226 221.553,89.895 222.457,89.491 223.370 C 87.601 227.642,88.441 239.001,91.021 244.074 C 91.204 244.433,91.353 244.983,91.353 245.296 C 91.353 245.609,91.523 245.865,91.729 245.865 C 91.936 245.865,92.105 246.118,92.105 246.429 C 92.105 246.739,92.274 246.992,92.481 246.992 C 92.688 246.992,92.857 247.160,92.857 247.366 C 92.857 248.243,99.443 255.046,101.427 256.218 C 102.098 256.614,102.571 257.134,102.479 257.374 C 102.377 257.639,102.578 257.740,102.993 257.631 C 103.368 257.533,103.788 257.637,103.927 257.862 C 104.066 258.087,104.508 258.271,104.909 258.271 C 105.311 258.271,105.639 258.440,105.639 258.647 C 105.639 258.853,106.052 259.023,106.557 259.023 C 107.061 259.023,107.579 259.192,107.707 259.398 C 107.835 259.605,108.616 259.774,109.443 259.774 C 110.270 259.774,110.854 259.924,110.741 260.108 C 110.627 260.291,110.819 260.672,111.167 260.954 C 111.601 261.306,111.710 261.319,111.516 260.996 C 111.307 260.648,111.677 260.526,112.948 260.526 C 113.890 260.526,114.662 260.695,114.662 260.902 C 114.662 261.129,116.228 261.278,118.609 261.278 C 121.106 261.278,122.556 261.134,122.556 260.885 C 122.556 260.654,123.284 260.529,124.317 260.583 C 125.422 260.640,126.134 260.506,126.229 260.224 C 126.311 259.977,126.777 259.774,127.265 259.774 C 127.752 259.774,128.256 259.605,128.383 259.398 C 128.511 259.192,128.944 259.023,129.345 259.023 C 129.747 259.023,130.077 258.896,130.078 258.741 C 130.082 258.359,131.942 257.519,132.782 257.519 C 133.154 257.519,133.459 257.378,133.459 257.206 C 133.459 257.034,134.308 256.343,135.346 255.671 C 137.763 254.104,140.474 251.451,142.099 249.060 C 142.802 248.026,143.514 247.124,143.681 247.055 C 143.848 246.986,143.985 246.606,143.985 246.209 C 143.985 245.813,144.154 245.489,144.361 245.489 C 144.568 245.489,144.737 245.150,144.737 244.737 C 144.737 244.323,144.906 243.985,145.113 243.985 C 145.320 243.985,145.489 243.729,145.489 243.416 C 145.489 243.103,145.641 242.553,145.828 242.194 C 147.662 238.665,148.092 230.096,146.737 224.060 C 144.783 215.353,137.785 207.244,129.511 204.099 C 124.867 202.333,124.096 202.166,118.609 201.737 C 117.782 201.673,115.642 201.828,113.853 202.083 M271.992 201.950 C 260.856 203.481,252.566 210.231,248.275 221.262 L 246.821 225.000 246.830 231.391 L 246.839 237.782 248.369 241.729 C 250.178 246.397,251.081 248.070,253.080 250.461 C 253.898 251.438,254.469 252.395,254.350 252.588 C 254.232 252.780,254.431 252.868,254.793 252.783 C 255.191 252.690,256.135 253.261,257.182 254.228 C 259.999 256.831,260.880 257.519,261.398 257.519 C 261.668 257.519,262.251 257.857,262.695 258.271 C 263.139 258.684,263.922 259.023,264.436 259.023 C 264.949 259.023,265.474 259.192,265.602 259.398 C 265.729 259.605,266.331 259.774,266.939 259.774 C 267.548 259.774,268.045 259.924,268.045 260.107 C 268.045 260.458,270.671 260.783,276.927 261.208 C 279.901 261.410,280.694 261.363,280.552 260.996 C 280.425 260.667,280.833 260.526,281.915 260.526 C 282.764 260.526,283.459 260.357,283.459 260.150 C 283.459 259.944,284.041 259.774,284.752 259.774 C 285.464 259.774,286.150 259.605,286.278 259.398 C 286.406 259.192,286.923 259.023,287.428 259.023 C 287.933 259.023,288.346 258.874,288.346 258.692 C 288.346 258.511,288.896 258.141,289.568 257.872 C 290.627 257.446,291.643 256.771,293.499 255.257 C 293.749 255.054,294.087 254.885,294.251 254.883 C 294.901 254.873,300.752 248.445,300.752 247.740 C 300.752 247.536,300.921 247.368,301.128 247.368 C 301.335 247.368,301.504 247.183,301.504 246.957 C 301.504 246.730,301.813 246.096,302.191 245.547 C 304.135 242.726,305.889 232.615,305.235 228.000 C 304.088 219.897,301.977 215.541,296.546 210.066 C 293.640 207.137,288.259 203.759,286.498 203.759 C 286.268 203.759,285.786 203.598,285.427 203.401 C 283.158 202.155,276.073 201.390,271.992 201.950 M125.398 210.873 C 147.158 220.499,141.824 251.986,118.421 252.056 C 92.706 252.133,88.661 216.200,113.722 210.312 C 116.827 209.582,123.169 209.887,125.398 210.873 M283.835 211.185 C 303.133 220.117,301.103 246.525,280.716 251.750 C 261.148 256.765,246.687 232.436,260.038 216.960 C 265.743 210.346,276.423 207.755,283.835 211.185 " stroke="none" fill="#322f2f" fill-rule="evenodd"></path><path id="path1" d="M208.271 177.068 C 200.088 177.235,198.945 177.334,198.025 177.958 C 197.080 178.598,196.151 178.659,187.427 178.652 C 175.514 178.642,176.528 178.070,176.466 184.835 C 176.423 189.403,175.784 196.522,175.379 196.927 C 175.300 197.005,175.388 197.469,175.574 197.958 C 175.781 198.504,175.772 198.931,175.550 199.069 C 175.351 199.192,175.188 199.462,175.188 199.668 C 175.188 199.875,175.358 199.939,175.567 199.810 C 175.775 199.682,176.053 199.858,176.185 200.202 C 176.322 200.559,176.200 200.971,175.901 201.160 C 175.071 201.686,174.060 201.558,174.060 200.928 C 174.060 200.302,172.487 199.535,172.180 200.010 C 172.077 200.170,170.977 200.372,169.737 200.459 C 168.496 200.545,166.805 200.914,165.977 201.278 C 164.023 202.138,162.158 202.444,161.563 202.001 C 161.303 201.807,160.723 201.676,160.274 201.711 C 159.770 201.750,159.391 201.516,159.281 201.097 C 159.139 200.551,158.894 200.475,158.030 200.706 L 156.955 200.992 156.707 207.357 C 156.051 224.243,155.906 238.326,156.384 238.901 C 156.996 239.638,239.611 239.788,240.066 239.053 C 240.209 238.821,240.354 235.733,240.389 232.192 C 240.494 221.379,242.877 213.966,248.085 208.248 C 250.864 205.196,251.825 203.759,251.089 203.759 C 250.846 203.759,250.406 203.463,250.112 203.102 C 249.723 202.623,249.524 202.572,249.381 202.914 C 249.094 203.602,247.991 203.510,248.256 202.820 C 248.499 202.188,247.557 202.023,247.180 202.632 C 246.877 203.122,245.489 203.120,245.489 202.629 C 245.489 200.181,256.383 192.799,263.158 190.656 C 273.428 187.409,285.429 188.185,294.361 192.675 C 300.305 195.663,308.284 202.949,307.132 204.337 C 306.615 204.959,305.263 205.085,305.263 204.511 C 305.263 203.875,304.718 204.094,304.189 204.942 C 303.748 205.648,303.760 205.719,304.286 205.517 C 304.737 205.344,304.887 205.519,304.887 206.215 C 304.887 206.789,304.672 207.143,304.323 207.143 C 304.013 207.143,303.759 206.889,303.759 206.579 C 303.759 206.269,303.575 206.015,303.349 206.015 C 303.123 206.015,303.288 206.565,303.715 207.237 C 304.142 207.909,305.018 209.558,305.660 210.902 C 306.302 212.246,307.311 214.107,307.901 215.038 C 308.979 216.739,309.836 218.989,310.335 221.429 C 310.483 222.152,310.771 223.421,310.975 224.248 C 311.180 225.075,311.458 228.797,311.595 232.519 L 311.842 239.286 333.882 239.383 L 355.921 239.480 356.396 238.333 C 357.010 236.852,356.710 220.472,356.047 219.233 C 355.629 218.452,355.380 218.421,349.445 218.421 C 345.102 218.421,343.196 218.289,343.003 217.976 C 342.497 217.158,342.332 201.879,342.823 201.385 C 343.069 201.139,344.812 200.856,346.728 200.752 L 350.188 200.564 350.064 199.436 C 349.996 198.816,349.889 197.434,349.826 196.366 C 349.682 193.932,348.770 192.873,346.262 192.231 C 345.246 191.971,343.599 191.397,342.602 190.955 C 341.605 190.512,340.451 190.020,340.038 189.860 C 339.624 189.700,338.524 189.227,337.594 188.808 C 333.952 187.170,331.084 186.499,330.660 187.184 C 330.097 188.096,323.043 186.830,313.820 184.162 C 311.390 183.459,309.529 183.423,268.331 183.265 C 209.164 183.040,196.140 182.628,195.595 180.964 C 195.119 179.513,203.148 179.163,247.086 178.719 C 261.715 178.570,273.684 178.313,273.684 178.147 C 273.684 177.981,267.213 177.774,259.305 177.687 C 251.396 177.600,244.008 177.422,242.888 177.292 C 240.121 176.970,219.577 176.837,208.271 177.068 M209.773 199.083 L 215.789 199.353 215.789 200.591 C 215.789 201.528,215.524 202.017,214.698 202.606 C 213.374 203.548,213.247 203.559,213.090 202.743 C 212.926 201.892,206.403 202.006,203.473 202.912 C 201.792 203.432,201.220 203.453,199.663 203.054 C 198.502 202.756,196.990 202.680,195.535 202.844 C 194.061 203.011,193.062 202.958,192.747 202.696 C 192.477 202.472,190.247 202.188,187.791 202.066 C 185.336 201.943,183.199 201.764,183.043 201.667 C 182.886 201.570,181.774 201.399,180.571 201.286 C 176.630 200.916,177.128 199.368,181.251 199.173 C 187.193 198.893,204.314 198.839,209.773 199.083 M299.138 202.261 C 299.009 202.755,299.180 203.146,299.633 203.388 C 300.659 203.937,300.886 203.840,300.193 203.147 C 299.856 202.810,299.670 202.303,299.779 202.019 C 299.887 201.736,299.832 201.504,299.656 201.504 C 299.480 201.504,299.247 201.844,299.138 202.261 M99.423 220.771 L 98.827 221.992 99.593 221.053 C 100.331 220.148,100.571 219.549,100.198 219.549 C 100.100 219.549,99.751 220.099,99.423 220.771 M255.023 230.075 C 255.023 232.039,255.086 232.843,255.164 231.861 C 255.241 230.879,255.241 229.272,255.164 228.289 C 255.086 227.307,255.023 228.111,255.023 230.075 M96.719 230.827 C 96.719 231.758,96.792 232.138,96.882 231.673 C 96.971 231.208,96.971 230.446,96.882 229.981 C 96.792 229.516,96.719 229.897,96.719 230.827 M138.656 233.139 C 137.757 240.830,135.279 244.448,127.307 249.711 C 126.452 250.276,125.949 250.741,126.190 250.745 C 127.983 250.774,134.777 244.809,136.642 241.569 C 137.713 239.707,139.191 233.923,139.025 232.238 C 138.933 231.303,138.846 231.515,138.656 233.139 M97.178 234.681 C 97.569 236.656,99.702 242.118,100.409 242.955 L 101.120 243.797 100.601 242.669 C 99.438 240.142,98.912 238.836,98.482 237.406 C 98.233 236.579,97.792 235.395,97.501 234.774 L 96.973 233.647 97.178 234.681 M296.271 234.530 C 296.048 234.947,295.881 235.765,295.902 236.347 C 295.934 237.256,296.013 237.170,296.461 235.741 C 297.026 233.942,296.926 233.306,296.271 234.530 M259.717 244.643 C 260.128 245.211,261.196 246.353,262.093 247.180 L 263.722 248.684 262.168 246.992 C 261.313 246.062,260.419 244.920,260.181 244.455 C 259.943 243.990,259.573 243.609,259.360 243.609 C 259.146 243.609,259.307 244.074,259.717 244.643 M103.276 246.139 C 105.501 248.271,109.963 251.065,110.417 250.611 C 110.534 250.493,110.153 250.215,109.570 249.994 C 108.171 249.462,103.516 246.357,102.916 245.555 C 102.656 245.208,102.105 244.694,101.692 244.413 C 101.278 244.131,101.991 244.908,103.276 246.139 M291.547 245.104 C 291.422 245.305,290.397 246.083,289.269 246.832 C 287.347 248.107,286.340 249.369,287.917 248.525 C 288.804 248.050,292.381 244.772,292.033 244.752 C 291.891 244.744,291.672 244.902,291.547 245.104 M264.530 249.016 C 265.411 249.668,267.293 250.463,267.293 250.184 C 267.293 250.088,266.659 249.721,265.883 249.367 C 263.752 248.395,263.656 248.370,264.530 249.016 M284.534 249.987 C 284.046 250.394,283.839 250.732,284.075 250.739 C 284.310 250.746,284.903 250.419,285.391 250.013 C 285.879 249.606,286.085 249.268,285.850 249.261 C 285.614 249.254,285.022 249.581,284.534 249.987 M111.333 250.908 C 112.315 251.987,120.698 252.757,121.277 251.821 C 121.474 251.502,121.003 251.449,119.513 251.622 C 117.628 251.840,114.251 251.514,112.030 250.901 C 111.513 250.758,111.200 250.761,111.333 250.908 M270.113 251.349 C 271.073 251.740,273.042 252.006,275.564 252.084 C 280.081 252.225,279.657 252.049,274.248 251.537 C 272.180 251.341,270.066 251.081,269.549 250.959 C 269.032 250.837,269.286 251.012,270.113 251.349 M281.203 251.316 C 280.479 251.594,280.141 251.822,280.451 251.822 C 280.761 251.822,281.607 251.594,282.331 251.316 C 283.055 251.037,283.393 250.809,283.083 250.809 C 282.773 250.809,281.927 251.037,281.203 251.316 " stroke="none" fill="#c5252c" fill-rule="evenodd"></path><path id="path2" d="M120.312 116.466 C 116.780 116.607,117.028 115.946,116.947 125.439 C 116.909 129.879,116.719 133.933,116.523 134.447 C 116.321 134.979,116.314 135.291,116.507 135.171 C 116.694 135.056,116.764 135.279,116.662 135.668 C 116.391 136.704,102.976 137.465,99.139 136.661 C 96.145 136.034,95.979 136.567,95.897 147.103 C 95.839 154.603,95.924 156.335,96.380 156.955 C 96.920 157.689,97.373 157.707,115.666 157.715 C 134.375 157.723,135.722 157.807,135.705 158.969 C 135.615 165.066,136.052 175.919,136.416 176.598 C 136.842 177.395,137.111 177.445,141.085 177.472 C 163.198 177.620,175.456 177.747,181.955 177.895 C 188.015 178.032,188.256 178.023,183.083 177.850 L 176.504 177.632 176.412 168.233 C 176.358 162.708,176.469 158.602,176.681 158.271 C 177.188 157.476,196.555 157.553,197.166 158.352 C 197.381 158.632,197.848 158.802,198.204 158.729 C 198.952 158.575,200.489 160.800,200.078 161.440 C 199.108 162.945,199.491 173.868,200.517 173.982 C 200.750 174.008,201.701 174.198,202.632 174.404 C 203.562 174.611,205.155 174.787,206.172 174.796 C 209.272 174.823,207.912 175.135,204.068 175.278 C 200.662 175.405,199.248 175.831,199.248 176.731 C 199.248 176.909,208.849 177.058,220.583 177.061 C 232.317 177.065,242.594 177.174,243.421 177.304 C 244.248 177.434,253.891 177.579,264.850 177.626 C 275.808 177.673,283.985 177.583,283.020 177.426 C 280.139 176.955,279.203 176.326,278.566 174.435 C 278.253 173.505,277.895 172.575,277.771 172.368 C 277.646 172.162,277.253 171.102,276.898 170.014 C 276.186 167.832,275.244 166.594,274.820 167.280 C 274.678 167.510,274.553 167.227,274.543 166.650 C 274.484 163.321,274.021 161.983,272.776 161.545 C 272.586 161.479,272.431 160.926,272.431 160.317 C 272.431 159.248,272.366 159.208,270.520 159.128 C 269.469 159.082,267.679 158.953,266.541 158.840 C 265.404 158.728,258.394 158.535,250.964 158.411 C 241.336 158.250,237.327 158.057,237.010 157.740 C 236.700 157.431,236.515 154.366,236.398 147.628 C 236.292 141.462,236.085 137.815,235.828 137.557 C 235.555 137.284,229.545 137.115,217.242 137.036 C 200.454 136.927,197.419 136.791,197.339 136.140 C 197.324 136.009,197.224 135.310,197.119 134.586 C 197.014 133.863,196.861 129.567,196.780 125.040 C 196.699 120.513,196.536 116.711,196.417 116.592 C 196.199 116.374,125.542 116.257,120.312 116.466 M194.932 118.456 C 195.702 119.225,195.320 120.936,194.306 121.258 C 192.633 121.789,120.437 121.633,119.791 121.097 C 119.045 120.478,118.982 119.047,119.676 118.472 C 120.747 117.583,194.042 117.568,194.932 118.456 M234.467 138.402 C 235.092 138.921,235.116 141.214,234.500 141.595 C 233.874 141.981,193.969 142.018,193.139 141.632 C 192.107 141.153,192.243 138.791,193.327 138.366 C 194.616 137.861,233.856 137.896,234.467 138.402 M210.706 160.164 C 210.583 160.363,210.953 160.526,211.528 160.526 C 212.545 160.526,212.552 160.541,211.800 161.068 C 211.230 161.467,210.096 161.582,207.487 161.506 C 204.084 161.406,202.993 161.014,204.534 160.444 C 205.003 160.271,205.265 160.338,205.269 160.632 C 205.273 160.958,205.366 160.946,205.593 160.588 C 205.768 160.312,206.042 160.086,206.203 160.086 C 206.364 160.086,206.638 160.312,206.813 160.588 C 207.070 160.994,207.132 160.996,207.137 160.598 C 207.140 160.327,207.278 160.189,207.443 160.291 C 207.608 160.393,207.931 160.361,208.162 160.220 C 208.834 159.808,210.955 159.762,210.706 160.164 M218.651 160.681 C 218.432 161.553,218.508 161.592,220.643 161.715 C 221.864 161.785,222.791 161.727,222.703 161.586 C 222.616 161.445,222.742 161.208,222.984 161.058 C 223.259 160.888,223.324 160.949,223.156 161.220 C 223.009 161.459,223.048 161.654,223.244 161.654 C 223.440 161.654,223.577 161.950,223.548 162.312 C 223.506 162.844,223.856 162.992,225.376 163.086 C 226.410 163.151,227.416 163.362,227.613 163.556 C 227.809 163.751,228.867 163.910,229.962 163.910 C 231.058 163.910,231.955 164.079,231.955 164.286 C 231.955 164.492,231.006 164.662,229.847 164.662 C 228.040 164.662,227.773 164.750,227.978 165.284 C 228.348 166.249,226.785 167.669,225.354 167.669 C 224.464 167.669,224.096 167.472,223.951 166.917 C 223.770 166.226,217.875 165.765,213.897 166.132 C 213.580 166.161,212.955 165.844,212.507 165.427 C 211.588 164.571,211.243 164.865,211.196 166.546 C 211.140 168.507,208.403 168.230,208.214 166.244 C 208.082 164.862,208.112 164.822,209.208 164.919 C 210.288 165.015,210.296 165.004,209.398 164.690 L 208.459 164.361 209.398 164.311 C 209.915 164.284,210.667 164.013,211.068 163.710 C 211.893 163.086,214.871 162.960,215.226 163.534 C 215.353 163.741,215.871 163.910,216.376 163.910 C 216.880 163.910,217.293 163.741,217.293 163.534 C 217.293 163.327,216.826 163.158,216.256 163.158 C 215.626 163.158,215.034 162.863,214.749 162.406 C 214.308 161.700,214.373 161.654,215.827 161.654 C 217.095 161.654,217.332 161.545,217.141 161.048 C 216.973 160.610,217.070 160.504,217.491 160.666 C 217.825 160.794,218.165 160.651,218.288 160.332 C 218.632 159.435,218.899 159.691,218.651 160.681 M227.350 160.620 C 227.102 161.367,225.265 161.881,224.735 161.351 C 224.387 161.003,224.509 160.902,225.279 160.902 C 225.825 160.902,226.376 160.733,226.504 160.526 C 226.838 159.985,227.535 160.062,227.350 160.620 M238.269 164.322 C 240.384 166.746,240.811 170.143,238.910 169.413 C 238.530 169.267,238.346 169.431,238.346 169.914 C 238.346 170.309,238.173 170.739,237.961 170.870 C 237.749 171.001,237.600 170.969,237.629 170.799 C 237.761 170.041,237.552 169.867,237.030 170.301 C 236.568 170.684,236.466 170.658,236.466 170.159 C 236.466 169.823,236.297 169.549,236.090 169.549 C 235.883 169.549,235.726 169.168,235.741 168.703 C 235.763 167.988,235.808 167.961,236.031 168.524 C 236.252 169.084,236.362 169.013,236.714 168.078 C 237.051 167.188,237.030 166.926,236.612 166.765 C 236.065 166.555,235.870 165.038,236.391 165.038 C 236.556 165.038,236.918 165.249,237.194 165.508 C 237.605 165.892,237.657 165.840,237.482 165.226 C 236.801 162.839,236.761 162.618,237.079 162.970 C 237.265 163.177,237.800 163.785,238.269 164.322 M205.017 164.682 C 204.383 165.316,203.554 164.422,204.131 163.727 C 204.605 163.156,204.669 163.157,204.992 163.734 C 205.187 164.084,205.198 164.501,205.017 164.682 M197.497 167.857 C 197.499 169.511,197.565 170.141,197.644 169.257 C 197.724 168.373,197.722 167.019,197.642 166.249 C 197.561 165.480,197.496 166.203,197.497 167.857 M236.090 167.105 C 236.090 167.531,235.631 167.669,234.211 167.669 C 231.820 167.669,231.747 167.005,234.117 166.818 C 235.099 166.740,235.945 166.646,235.996 166.609 C 236.048 166.572,236.090 166.795,236.090 167.105 M207.895 168.461 C 207.895 169.038,207.617 169.173,206.426 169.173 C 205.143 169.173,204.982 169.268,205.154 169.925 C 205.453 171.066,204.407 170.852,203.853 169.659 C 203.140 168.124,203.257 167.749,204.379 167.964 C 204.932 168.069,205.280 168.001,205.163 167.811 C 205.043 167.618,205.594 167.529,206.423 167.608 C 207.568 167.717,207.895 167.906,207.895 168.461 M210.902 170.327 C 210.902 170.918,210.700 171.076,210.060 170.985 C 208.811 170.807,208.701 169.549,209.935 169.549 C 210.662 169.549,210.902 169.742,210.902 170.327 M237.821 171.924 C 237.667 172.837,236.777 174.101,236.381 173.969 C 235.727 173.751,235.672 172.276,236.295 171.654 C 236.916 171.032,237.941 171.214,237.821 171.924 M231.579 172.180 C 231.579 172.387,231.922 172.556,232.341 172.556 C 233.390 172.556,233.187 175.182,232.105 175.607 C 230.443 176.259,226.146 175.980,225.651 175.188 C 225.044 174.216,224.701 174.239,224.243 175.282 C 223.762 176.379,216.377 176.338,215.513 175.234 C 215.090 174.694,215.066 174.709,215.296 175.364 C 215.529 176.025,215.493 176.045,214.949 175.552 C 213.701 174.418,219.641 173.448,223.438 174.166 C 223.677 174.211,223.830 174.037,223.778 173.778 C 223.709 173.433,224.493 173.308,226.727 173.308 C 229.453 173.308,229.790 173.230,229.966 172.556 C 230.163 171.802,231.579 171.472,231.579 172.180 M225.940 174.060 C 225.940 174.267,226.373 174.436,226.902 174.436 C 227.448 174.436,227.763 174.273,227.632 174.060 C 227.504 173.853,227.071 173.684,226.670 173.684 C 226.268 173.684,225.940 173.853,225.940 174.060 M211.864 175.012 C 211.038 175.637,209.925 175.736,209.602 175.214 C 209.483 175.021,209.854 174.792,210.426 174.706 C 212.485 174.395,212.638 174.427,211.864 175.012 M218.445 174.971 C 218.067 175.427,218.182 175.510,219.152 175.482 C 219.790 175.464,220.267 175.427,220.212 175.400 C 220.157 175.373,219.839 175.143,219.505 174.889 C 219.016 174.518,218.808 174.534,218.445 174.971 M197.380 176.779 C 197.366 177.545,196.548 177.773,193.233 177.933 C 191.202 178.031,191.360 178.062,194.173 178.117 C 198.055 178.194,198.774 177.954,197.944 176.858 C 197.450 176.204,197.391 176.196,197.380 176.779 M300.851 177.713 C 301.422 177.800,302.268 177.797,302.731 177.708 C 303.193 177.619,302.726 177.548,301.692 177.551 C 300.658 177.554,300.280 177.627,300.851 177.713 M199.436 179.570 C 197.311 179.823,195.439 180.491,195.588 180.943 C 196.024 182.274,198.944 182.456,220.865 182.524 C 238.027 182.578,240.085 182.538,231.203 182.325 C 218.908 182.030,215.038 181.715,215.038 181.009 C 215.038 180.384,218.286 180.015,226.504 179.707 C 231.553 179.518,229.119 179.451,216.917 179.445 C 207.923 179.440,200.056 179.496,199.436 179.570 M266.830 182.603 C 267.506 182.687,268.521 182.685,269.086 182.599 C 269.651 182.514,269.098 182.445,267.857 182.447 C 266.617 182.449,266.154 182.520,266.830 182.603 M286.560 182.590 C 286.922 182.685,287.514 182.685,287.876 182.590 C 288.238 182.495,287.942 182.418,287.218 182.418 C 286.494 182.418,286.198 182.495,286.560 182.590 M310.902 182.941 C 310.902 183.330,313.871 184.229,314.843 184.134 C 315.734 184.046,315.433 183.893,313.440 183.416 C 312.044 183.082,310.902 182.869,310.902 182.941 M319.549 185.319 C 319.859 185.530,320.606 185.705,321.209 185.709 C 322.654 185.716,322.354 185.499,320.489 185.186 C 319.411 185.006,319.145 185.043,319.549 185.319 M323.308 186.028 C 324.074 186.530,328.261 187.594,329.472 187.594 C 330.577 187.594,330.797 186.925,329.793 186.615 C 329.431 186.503,328.817 186.239,328.427 186.028 C 327.918 185.753,327.638 185.776,327.431 186.110 C 327.146 186.571,325.156 186.470,323.496 185.911 C 322.918 185.716,322.875 185.743,323.308 186.028 M268.233 189.152 C 259.195 191.478,252.884 194.767,248.026 199.683 C 246.631 201.095,245.489 202.421,245.489 202.629 C 245.489 203.120,246.877 203.122,247.180 202.632 C 247.557 202.023,248.499 202.188,248.256 202.820 C 247.991 203.510,249.094 203.602,249.381 202.914 C 249.524 202.572,249.723 202.623,250.112 203.102 C 250.704 203.830,251.504 203.980,251.504 203.362 C 251.504 203.144,252.258 202.632,253.179 202.224 C 254.100 201.817,255.327 201.096,255.904 200.623 C 257.696 199.156,259.635 198.120,260.589 198.120 C 261.091 198.120,262.678 197.516,264.116 196.777 L 266.729 195.434 273.496 195.241 C 278.917 195.087,280.824 195.171,283.083 195.665 C 284.633 196.004,286.664 196.414,287.594 196.578 C 288.524 196.741,290.301 197.457,291.541 198.169 C 292.782 198.882,294.558 199.820,295.489 200.255 C 296.419 200.690,297.503 201.402,297.897 201.838 C 298.738 202.770,299.248 202.857,299.248 202.068 C 299.248 201.758,299.412 201.504,299.612 201.504 C 299.813 201.504,299.892 201.724,299.788 201.994 C 299.599 202.486,302.787 206.015,303.421 206.015 C 303.607 206.015,303.759 206.269,303.759 206.579 C 303.759 206.889,304.013 207.143,304.323 207.143 C 304.672 207.143,304.887 206.789,304.887 206.215 C 304.887 205.519,304.737 205.344,304.286 205.517 C 303.760 205.719,303.748 205.648,304.189 204.942 C 304.718 204.094,305.263 203.875,305.263 204.511 C 305.263 204.718,305.526 204.887,305.848 204.887 C 306.253 204.887,306.118 204.617,305.412 204.009 C 304.198 202.965,304.447 202.004,305.743 202.733 C 306.195 202.987,306.773 203.449,307.029 203.759 C 307.318 204.109,307.499 204.156,307.507 203.884 C 307.548 202.368,299.251 195.222,294.753 192.899 C 288.107 189.467,274.486 187.543,268.233 189.152 M340.602 189.474 C 341.342 189.952,342.213 189.952,341.917 189.474 C 341.790 189.267,341.314 189.100,340.861 189.104 C 340.192 189.108,340.143 189.177,340.602 189.474 M343.247 190.389 C 343.911 191.039,345.865 191.570,345.865 191.100 C 345.865 190.916,345.399 190.727,344.831 190.680 C 344.262 190.633,343.741 190.427,343.672 190.222 C 343.603 190.017,343.355 189.850,343.121 189.850 C 342.863 189.850,342.912 190.062,343.247 190.389 M350.446 197.744 C 350.429 198.318,351.029 199.968,351.130 199.624 C 351.387 198.751,351.383 198.150,351.123 198.311 C 350.950 198.418,350.731 198.207,350.636 197.843 C 350.520 197.400,350.457 197.367,350.446 197.744 M262.643 198.317 C 262.473 198.759,262.571 198.813,263.072 198.556 C 263.430 198.372,263.976 198.128,264.286 198.013 C 264.617 197.890,264.439 197.791,263.856 197.774 C 263.291 197.757,262.768 197.991,262.643 198.317 M181.251 199.173 C 177.128 199.368,176.630 200.916,180.571 201.286 C 181.774 201.399,182.886 201.570,183.043 201.667 C 183.199 201.764,185.336 201.943,187.791 202.066 C 190.247 202.188,192.477 202.472,192.747 202.696 C 193.062 202.958,194.061 203.011,195.535 202.844 C 196.990 202.680,198.502 202.756,199.663 203.054 C 201.220 203.453,201.792 203.432,203.473 202.912 C 206.403 202.006,212.926 201.892,213.090 202.743 C 213.247 203.559,213.374 203.548,214.698 202.606 C 215.524 202.017,215.789 201.528,215.789 200.591 L 215.789 199.353 209.773 199.083 C 204.314 198.839,187.193 198.893,181.251 199.173 M157.059 199.676 C 156.367 200.103,157.203 200.828,158.173 200.643 C 158.851 200.513,159.164 200.646,159.287 201.118 C 159.391 201.517,159.779 201.749,160.274 201.711 C 160.723 201.676,161.303 201.807,161.563 202.001 C 162.158 202.444,164.023 202.138,165.977 201.278 C 166.805 200.914,168.496 200.546,169.737 200.461 C 171.962 200.307,172.476 200.170,172.129 199.823 C 171.852 199.547,157.495 199.407,157.059 199.676 M155.497 210.368 C 155.406 216.348,155.217 222.256,155.076 223.496 C 154.866 225.351,154.909 225.667,155.313 225.274 C 155.859 224.744,156.453 200.495,155.936 199.842 C 155.785 199.652,155.587 204.389,155.497 210.368 M173.214 200.000 C 173.680 200.193,174.060 200.611,174.060 200.928 C 174.060 201.558,175.071 201.686,175.901 201.160 C 176.935 200.505,176.070 199.770,174.194 199.708 C 172.744 199.661,172.542 199.721,173.214 200.000 M343.139 201.158 C 342.439 201.566,342.220 211.265,342.800 216.165 L 343.045 218.233 349.834 218.260 C 353.568 218.275,356.867 218.428,357.165 218.599 C 357.463 218.770,357.175 218.374,356.526 217.720 C 355.356 216.543,355.197 216.056,354.550 211.654 C 354.383 210.517,354.214 209.756,354.174 209.962 C 354.048 210.624,353.019 207.371,353.013 206.292 C 353.010 205.720,352.838 204.917,352.632 204.506 C 352.425 204.095,352.086 203.423,351.880 203.013 C 351.673 202.602,351.504 201.925,351.504 201.509 C 351.504 200.654,344.509 200.360,343.139 201.158 M255.249 202.283 L 253.947 203.438 255.451 202.392 C 256.278 201.817,257.025 201.297,257.112 201.237 C 257.198 201.177,257.107 201.128,256.909 201.128 C 256.712 201.128,255.965 201.648,255.249 202.283 M247.672 209.680 C 246.955 210.516,246.518 211.278,246.757 211.278 C 246.858 211.278,247.303 210.771,247.744 210.150 C 248.620 208.920,248.575 208.628,247.672 209.680 M112.478 211.265 C 89.428 217.492,94.318 251.738,118.233 251.578 C 130.701 251.495,139.770 241.236,138.617 228.520 C 137.513 216.339,124.788 207.939,112.478 211.265 M270.830 211.052 C 254.758 214.226,250.045 237.037,263.311 247.449 C 269.049 251.953,280.303 252.926,285.338 249.353 C 285.855 248.987,286.742 248.432,287.308 248.121 C 294.226 244.325,298.164 233.954,295.854 225.617 C 292.778 214.517,282.773 208.694,270.830 211.052 M242.151 220.489 C 242.120 220.902,242.008 221.664,241.902 222.180 L 241.708 223.120 242.111 222.198 C 242.332 221.691,242.445 220.930,242.361 220.506 C 242.212 219.757,242.206 219.756,242.151 220.489 M310.997 236.654 C 311.001 237.481,311.078 237.775,311.168 237.308 C 311.258 236.840,311.255 236.163,311.161 235.804 C 311.066 235.444,310.993 235.827,310.997 236.654 M155.234 236.560 C 154.997 237.335,155.022 238.009,155.294 238.177 C 155.481 238.293,155.598 237.955,155.555 237.427 C 155.487 236.610,155.340 236.214,155.234 236.560 " stroke="none" fill="#f3ae42" fill-rule="evenodd"></path><path id="path3" d="M116.165 115.977 C 116.165 116.288,116.029 116.541,115.862 116.541 C 115.695 116.541,115.568 120.853,115.580 126.122 L 115.602 135.702 105.886 135.802 L 96.170 135.902 95.647 137.406 C 95.037 139.160,94.972 140.930,95.489 141.729 C 95.859 142.303,95.877 142.210,96.011 139.044 C 96.084 137.298,97.305 136.347,99.058 136.668 C 102.434 137.288,116.517 136.709,116.572 135.949 C 116.589 135.716,116.652 135.019,116.712 134.398 C 116.772 133.778,116.865 129.692,116.919 125.318 C 116.972 120.945,117.145 117.157,117.304 116.900 C 117.683 116.286,196.251 116.130,196.486 116.743 C 196.568 116.957,196.701 120.764,196.781 125.202 C 196.862 129.640,197.013 133.863,197.119 134.586 C 197.224 135.310,197.324 136.009,197.339 136.140 C 197.419 136.791,200.454 136.927,217.242 137.036 C 229.545 137.115,235.555 137.284,235.828 137.557 C 236.085 137.815,236.292 141.462,236.398 147.628 C 236.515 154.366,236.700 157.431,237.010 157.740 C 237.327 158.057,241.332 158.249,250.964 158.407 C 258.394 158.529,265.462 158.675,266.671 158.732 C 267.879 158.789,268.947 158.709,269.043 158.553 C 269.906 157.156,272.422 158.674,273.557 161.278 C 274.635 163.751,274.799 164.402,274.581 165.341 C 274.352 166.329,274.362 166.335,274.973 165.602 C 275.578 164.875,275.591 164.891,275.364 166.071 C 275.184 167.006,275.259 167.293,275.685 167.293 C 276.183 167.293,277.037 168.432,278.434 170.958 C 278.691 171.422,279.028 172.007,279.183 172.257 C 279.338 172.508,279.504 173.058,279.553 173.480 C 280.028 177.571,279.936 177.550,296.898 177.470 C 306.491 177.425,310.902 177.529,310.902 177.800 C 310.902 178.017,311.315 178.195,311.820 178.195 C 312.325 178.195,312.842 178.365,312.970 178.571 C 313.098 178.778,313.531 178.947,313.932 178.947 C 314.333 178.947,314.662 178.778,314.662 178.571 C 314.662 178.365,314.333 178.195,313.932 178.195 C 313.531 178.195,313.098 178.026,312.970 177.820 C 312.842 177.613,312.335 177.444,311.842 177.444 C 311.350 177.444,310.847 177.282,310.725 177.085 C 310.592 176.870,305.085 176.717,296.902 176.701 C 282.087 176.672,281.579 176.595,281.579 174.371 C 281.579 173.993,281.410 173.684,281.203 173.684 C 280.996 173.684,280.827 173.271,280.827 172.767 C 280.827 172.262,280.658 171.744,280.451 171.617 C 280.244 171.489,280.075 171.056,280.075 170.655 C 280.075 170.253,279.906 169.925,279.699 169.925 C 279.492 169.925,279.323 169.586,279.323 169.173 C 279.323 168.759,279.154 168.421,278.947 168.421 C 278.741 168.421,278.571 168.164,278.571 167.850 C 278.571 167.535,278.148 166.608,277.632 165.789 C 277.115 164.971,276.692 164.128,276.692 163.917 C 276.692 163.706,276.523 163.534,276.316 163.534 C 276.109 163.534,275.940 163.195,275.940 162.782 C 275.940 162.368,275.812 162.030,275.656 162.030 C 275.499 162.030,275.144 161.480,274.866 160.808 C 273.731 158.067,273.298 157.226,272.807 156.819 C 272.435 156.510,267.530 156.417,255.159 156.485 L 238.026 156.579 237.811 155.501 C 237.692 154.907,237.705 151.000,237.840 146.818 C 238.020 141.246,237.970 139.142,237.652 138.945 C 237.413 138.798,237.218 138.422,237.218 138.109 C 237.218 137.452,236.332 136.466,235.741 136.466 C 235.520 136.466,235.338 136.297,235.338 136.090 C 235.338 135.845,228.947 135.714,216.917 135.714 L 198.496 135.714 198.496 126.015 C 198.496 118.972,198.373 116.192,198.045 115.865 C 197.289 115.109,116.165 115.221,116.165 115.977 M134.620 117.956 C 119.500 118.059,119.173 118.097,119.173 119.737 C 119.173 121.687,117.673 121.615,156.992 121.550 C 196.018 121.486,194.911 121.530,195.285 120.041 C 195.881 117.668,192.723 117.559,134.620 117.956 M193.327 138.366 C 192.243 138.791,192.107 141.153,193.139 141.632 C 193.969 142.018,233.874 141.981,234.500 141.595 C 235.116 141.214,235.092 138.921,234.467 138.402 C 233.856 137.896,194.616 137.861,193.327 138.366 M62.733 156.797 C 62.360 157.027,62.424 157.108,62.975 157.104 C 65.275 157.087,79.195 157.430,79.511 157.511 C 80.989 157.891,96.572 157.464,96.413 157.049 C 96.201 156.499,63.609 156.256,62.733 156.797 M178.103 157.800 C 176.248 157.984,176.271 157.839,176.398 168.609 L 176.504 177.632 186.090 177.737 C 191.363 177.795,196.057 177.750,196.523 177.636 L 197.368 177.429 197.368 167.872 C 197.368 162.616,197.223 158.225,197.044 158.115 C 196.656 157.874,180.114 157.599,178.103 157.800 M56.479 160.008 C 56.439 160.933,56.555 161.597,56.737 161.485 C 57.125 161.245,57.187 158.718,56.810 158.485 C 56.668 158.398,56.519 159.083,56.479 160.008 M56.642 163.784 C 56.240 164.186,56.353 168.045,56.767 168.045 C 56.976 168.045,57.143 167.043,57.143 165.789 C 57.143 163.514,57.097 163.329,56.642 163.784 M56.397 176.222 C 56.394 176.687,56.560 177.068,56.767 177.068 C 57.238 177.068,57.238 176.669,56.767 175.940 C 56.472 175.484,56.401 175.538,56.397 176.222 M40.809 177.022 C 41.152 177.362,49.245 177.309,49.247 176.967 C 49.248 176.808,47.296 176.703,44.910 176.733 C 42.525 176.763,40.679 176.893,40.809 177.022 M51.777 177.339 C 52.445 177.422,53.629 177.423,54.409 177.342 C 55.189 177.261,54.643 177.193,53.195 177.191 C 51.748 177.189,51.110 177.256,51.777 177.339 M315.240 179.347 C 315.360 179.541,315.899 179.699,316.438 179.699 C 317.642 179.699,317.446 179.434,316.055 179.182 C 315.463 179.074,315.115 179.145,315.240 179.347 M226.504 179.707 C 218.335 180.013,215.038 180.385,215.038 181.000 C 215.038 182.130,223.803 182.393,267.481 182.571 L 310.714 182.747 315.977 184.048 C 318.872 184.763,322.211 185.600,323.397 185.907 C 325.738 186.514,327.444 186.631,327.442 186.184 C 327.441 185.857,322.869 184.023,317.481 182.190 C 315.414 181.487,312.904 180.554,311.905 180.117 C 310.014 179.291,245.845 178.982,226.504 179.707 M319.274 181.000 C 319.529 181.275,319.864 181.423,320.019 181.329 C 320.544 181.012,320.305 180.611,319.556 180.555 C 318.955 180.510,318.901 180.595,319.274 181.000 M321.661 181.747 C 321.784 182.068,322.191 182.331,322.565 182.331 C 322.939 182.331,323.308 182.517,323.383 182.744 C 323.459 182.971,323.938 183.085,324.448 182.998 C 325.311 182.850,325.323 182.819,324.624 182.551 C 323.958 182.296,322.498 181.665,321.715 181.295 C 321.562 181.223,321.538 181.427,321.661 181.747 M325.752 183.459 C 325.880 183.665,326.228 183.835,326.526 183.835 C 326.824 183.835,327.068 183.665,327.068 183.459 C 327.068 183.252,326.719 183.083,326.294 183.083 C 325.868 183.083,325.624 183.252,325.752 183.459 M327.820 184.211 C 327.820 184.417,328.073 184.586,328.383 184.586 C 328.694 184.586,328.947 184.417,328.947 184.211 C 328.947 184.004,328.694 183.835,328.383 183.835 C 328.073 183.835,327.820 184.004,327.820 184.211 M329.887 184.962 C 329.759 185.169,330.013 185.338,330.451 185.338 C 330.889 185.338,331.143 185.169,331.015 184.962 C 330.887 184.756,330.633 184.586,330.451 184.586 C 330.269 184.586,330.015 184.756,329.887 184.962 M331.767 185.714 C 331.895 185.921,332.253 186.090,332.563 186.090 C 332.873 186.090,333.023 185.921,332.895 185.714 C 332.767 185.508,332.409 185.338,332.098 185.338 C 331.788 185.338,331.639 185.508,331.767 185.714 M339.474 188.722 C 339.474 188.929,339.907 189.098,340.436 189.098 C 340.981 189.098,341.297 188.935,341.165 188.722 C 341.038 188.515,340.605 188.346,340.203 188.346 C 339.802 188.346,339.474 188.515,339.474 188.722 M343.985 190.226 C 343.547 190.509,343.657 190.591,344.477 190.596 C 345.087 190.599,345.435 190.443,345.301 190.226 C 345.012 189.759,344.707 189.759,343.985 190.226 M345.865 190.977 C 345.865 191.184,346.245 191.351,346.711 191.348 C 347.395 191.343,347.448 191.272,346.992 190.977 C 346.264 190.506,345.865 190.506,345.865 190.977 M348.320 191.711 C 348.186 191.928,348.326 192.105,348.631 192.105 C 348.936 192.105,349.271 192.317,349.375 192.575 C 349.494 192.870,349.576 192.888,349.594 192.621 C 349.640 191.969,348.613 191.236,348.320 191.711 M273.120 196.089 C 267.465 196.610,259.204 199.651,254.940 202.781 C 249.750 206.590,243.377 215.461,242.645 219.894 C 242.523 220.635,242.160 222.002,241.840 222.932 C 241.423 224.139,241.203 226.722,241.071 231.947 C 240.914 238.124,240.789 239.343,240.273 239.736 C 239.750 240.134,239.852 240.204,240.977 240.215 C 242.033 240.226,242.605 240.555,243.869 241.878 C 244.735 242.786,245.539 243.433,245.655 243.318 C 245.770 243.202,245.865 243.380,245.865 243.713 C 245.865 244.046,246.164 244.539,246.529 244.810 C 246.895 245.080,247.467 245.724,247.802 246.241 C 248.603 247.479,253.759 252.897,253.759 252.501 C 253.759 252.331,253.210 251.628,252.538 250.939 C 250.630 248.980,250.591 248.912,248.583 243.963 C 244.479 233.853,244.792 226.104,249.698 216.358 C 250.321 215.120,251.532 213.260,252.389 212.223 C 272.708 187.648,311.749 206.292,305.242 237.464 C 304.106 242.909,303.996 243.854,304.468 244.146 C 304.699 244.289,304.887 244.226,304.887 244.007 C 304.887 243.788,305.149 243.609,305.469 243.609 C 305.789 243.609,306.752 243.271,307.608 242.857 C 308.463 242.444,309.313 242.105,309.496 242.105 C 309.679 242.105,310.064 241.894,310.352 241.635 C 311.419 240.678,311.890 240.334,312.423 240.120 C 312.833 239.955,312.769 239.839,312.164 239.654 C 311.120 239.334,310.866 237.997,311.149 234.313 C 311.905 224.499,307.582 213.024,300.577 206.252 C 295.099 200.956,291.034 198.754,282.895 196.674 C 281.168 196.233,275.342 195.884,273.120 196.089 M350.752 197.284 C 350.752 197.926,350.904 198.546,351.090 198.661 C 351.479 198.902,351.407 196.771,351.013 196.376 C 350.869 196.233,350.752 196.641,350.752 197.284 M111.090 197.034 C 107.086 198.304,105.740 198.855,101.735 200.865 C 96.897 203.292,93.405 206.185,90.166 210.449 C 89.269 211.629,88.451 212.679,88.347 212.782 C 85.346 215.768,82.913 224.552,82.881 232.519 C 82.867 235.827,82.727 238.914,82.568 239.380 C 82.228 240.379,83.043 240.523,84.697 239.756 C 85.595 239.338,85.709 239.076,85.717 237.406 C 85.723 236.053,85.828 235.684,86.090 236.090 C 86.291 236.400,86.457 237.127,86.460 237.705 C 86.464 238.319,86.857 239.147,87.406 239.696 C 87.923 240.213,88.346 240.897,88.346 241.217 C 88.346 241.537,88.684 242.229,89.098 242.755 L 89.850 243.710 89.850 242.720 C 89.850 242.175,89.697 241.729,89.512 241.729 C 89.326 241.729,89.091 241.010,88.990 240.132 C 88.890 239.253,88.526 236.945,88.182 235.003 C 86.888 227.700,89.445 218.007,94.206 212.162 C 102.884 201.510,117.180 198.194,130.639 203.712 C 135.473 205.695,142.186 211.311,143.635 214.585 C 143.929 215.248,144.266 215.789,144.386 215.789 C 145.153 215.789,147.131 221.996,147.928 226.907 C 148.503 230.449,148.038 238.983,147.240 239.529 C 147.045 239.663,146.980 240.139,147.097 240.586 C 147.232 241.099,147.113 241.475,146.775 241.605 C 146.172 241.836,146.036 243.233,146.617 243.233 C 146.823 243.233,146.992 242.909,146.992 242.513 C 146.992 242.116,147.169 241.733,147.385 241.661 C 147.601 241.589,147.809 241.119,147.847 240.617 C 147.884 240.115,148.300 239.289,148.770 238.782 C 149.240 238.275,149.624 237.546,149.624 237.163 C 149.624 236.780,149.793 236.466,150.000 236.466 C 150.207 236.466,150.376 236.128,150.376 235.714 C 150.376 235.301,150.519 234.962,150.694 234.962 C 150.869 234.962,151.043 234.012,151.081 232.849 C 151.119 231.687,151.330 230.400,151.550 229.988 C 151.771 229.577,151.857 228.624,151.742 227.872 C 151.186 224.233,151.007 223.456,150.613 222.954 C 150.272 222.519,150.300 222.478,150.752 222.744 C 151.201 223.009,151.232 222.966,150.905 222.535 C 150.679 222.236,149.839 220.977,149.039 219.737 C 148.238 218.496,147.281 217.208,146.912 216.873 C 146.543 216.539,146.241 215.989,146.241 215.651 C 146.241 215.314,146.071 215.038,145.865 215.038 C 145.658 215.038,145.489 214.774,145.489 214.451 C 145.489 214.129,145.355 213.948,145.193 214.048 C 145.030 214.149,144.662 213.694,144.375 213.037 C 144.088 212.380,143.545 211.569,143.168 211.234 C 142.790 210.900,142.477 210.477,142.472 210.294 C 142.458 209.752,139.968 207.149,139.711 207.407 C 139.580 207.537,139.474 207.334,139.474 206.955 C 139.474 206.576,139.375 206.364,139.254 206.485 C 139.134 206.606,138.726 206.422,138.347 206.078 C 137.969 205.733,137.118 205.028,136.456 204.511 C 133.701 202.359,132.466 200.564,133.741 200.564 C 133.965 200.564,134.275 200.437,134.430 200.282 C 134.585 200.127,135.360 200.000,136.153 200.000 C 137.144 200.000,137.594 199.834,137.594 199.469 C 137.594 199.090,137.917 198.989,138.722 199.116 C 139.342 199.213,139.850 199.129,139.850 198.929 C 139.850 198.710,137.432 198.544,133.820 198.515 C 130.503 198.488,127.331 198.288,126.771 198.069 C 123.154 196.660,114.144 196.065,111.090 197.034 M154.899 210.401 C 154.906 217.828,155.037 221.775,155.264 221.387 C 155.773 220.515,155.794 199.112,155.285 198.942 C 155.011 198.851,154.891 202.403,154.899 210.401 M351.504 201.670 C 351.504 202.174,351.673 202.692,351.880 202.820 C 352.086 202.947,352.256 203.370,352.256 203.759 C 352.256 204.149,352.408 204.561,352.594 204.676 C 352.780 204.791,352.932 204.293,352.932 203.570 C 352.932 202.847,352.780 202.256,352.594 202.256 C 352.408 202.256,352.256 201.917,352.256 201.504 C 352.256 201.090,352.086 200.752,351.880 200.752 C 351.673 200.752,351.504 201.165,351.504 201.670 M353.013 206.485 C 353.021 207.663,353.949 210.212,354.257 209.903 C 354.658 209.503,354.553 207.143,354.135 207.143 C 353.929 207.143,353.759 206.805,353.759 206.391 C 353.759 205.977,353.590 205.639,353.383 205.639 C 353.177 205.639,353.010 206.020,353.013 206.485 M354.656 212.030 C 355.018 215.751,356.767 219.955,356.767 217.105 C 356.767 216.795,356.598 216.541,356.391 216.541 C 356.184 216.541,356.015 215.810,356.015 214.917 C 356.015 214.022,355.673 212.629,355.253 211.815 L 354.491 210.338 354.656 212.030 M357.018 218.296 C 356.880 218.434,356.767 223.316,356.767 229.146 L 356.767 239.745 355.827 239.566 C 355.265 239.458,354.887 239.560,354.887 239.819 C 354.887 240.281,356.263 240.217,357.059 239.718 C 357.478 239.455,357.787 218.045,357.372 218.045 C 357.315 218.045,357.155 218.158,357.018 218.296 M154.370 223.355 C 154.040 225.007,154.148 234.204,154.511 235.338 C 154.687 235.887,154.828 233.347,154.850 229.229 C 154.887 222.159,154.807 221.173,154.370 223.355 M155.230 239.380 C 155.685 240.264,158.647 240.671,158.647 239.850 C 158.647 239.643,158.004 239.474,157.218 239.474 C 156.432 239.474,155.566 239.262,155.292 239.004 C 154.882 238.616,154.871 238.682,155.230 239.380 M43.232 239.944 C 43.233 240.099,45.221 240.197,47.650 240.162 C 52.228 240.097,51.705 239.938,46.334 239.763 C 44.627 239.707,43.232 239.789,43.232 239.944 M171.617 239.850 C 171.177 240.038,175.788 240.165,182.707 240.155 C 189.220 240.145,194.041 240.007,193.421 239.850 C 191.858 239.452,172.542 239.452,171.617 239.850 M209.399 239.944 C 209.398 240.376,234.677 240.278,235.338 239.844 C 235.713 239.597,231.453 239.505,222.651 239.567 C 215.362 239.619,209.399 239.789,209.399 239.944 M337.594 239.937 C 337.594 240.094,340.766 240.203,344.643 240.180 C 348.520 240.156,351.353 240.006,350.940 239.845 C 349.980 239.472,337.594 239.557,337.594 239.937 M353.008 239.850 C 352.117 240.135,352.132 240.153,353.289 240.188 C 353.961 240.209,354.511 240.056,354.511 239.850 C 354.511 239.425,354.334 239.425,353.008 239.850 M200.846 240.126 C 201.828 240.203,203.435 240.203,204.417 240.126 C 205.399 240.049,204.596 239.985,202.632 239.985 C 200.667 239.985,199.864 240.049,200.846 240.126 M142.951 248.683 C 142.416 249.290,142.351 249.624,142.767 249.624 C 142.924 249.624,143.264 249.286,143.522 248.872 C 144.058 248.014,143.657 247.881,142.951 248.683 M300.846 249.227 C 299.989 249.942,299.769 250.386,300.282 250.364 C 300.437 250.358,300.868 249.935,301.239 249.424 C 302.042 248.321,301.973 248.287,300.846 249.227 M141.034 251.364 C 140.548 251.882,140.222 252.377,140.309 252.465 C 140.397 252.552,140.953 252.118,141.545 251.500 C 142.137 250.882,142.463 250.386,142.270 250.399 C 142.076 250.412,141.520 250.846,141.034 251.364 M95.113 252.165 C 95.113 252.322,95.451 252.662,95.865 252.920 C 96.739 253.466,96.856 253.193,96.079 252.417 C 95.487 251.824,95.113 251.727,95.113 252.165 M271.564 261.539 C 271.707 261.682,272.200 261.851,272.660 261.916 C 273.324 262.008,273.380 261.956,272.932 261.661 C 272.294 261.241,271.165 261.140,271.564 261.539 " stroke="none" fill="#f3e9e4" fill-rule="evenodd"></path><path id="path4" d="M58.631 156.936 C 58.433 157.133,58.271 157.149,58.271 156.973 C 58.271 156.796,57.950 157.022,57.557 157.474 C 57.132 157.965,56.918 158.633,57.026 159.130 C 57.173 159.801,57.130 159.853,56.805 159.398 C 56.248 158.618,56.286 159.241,56.851 160.146 C 57.215 160.728,57.215 160.981,56.851 161.344 C 56.299 161.897,56.222 164.059,56.767 163.722 C 57.002 163.577,57.143 164.344,57.143 165.767 C 57.143 167.035,56.976 168.045,56.767 168.045 C 56.547 168.045,56.391 169.306,56.391 171.075 C 56.391 172.999,56.528 174.020,56.767 173.872 C 56.974 173.744,57.143 173.889,57.143 174.195 C 57.143 174.500,56.949 174.814,56.713 174.893 C 56.397 174.998,56.407 175.267,56.752 175.912 C 57.127 176.613,57.126 176.846,56.747 177.080 C 56.151 177.448,41.400 177.278,40.503 176.893 C 40.118 176.727,39.606 176.802,39.281 177.072 C 38.880 177.404,38.722 177.414,38.722 177.105 C 38.722 176.831,38.380 176.898,37.782 177.290 L 36.842 177.906 36.842 208.668 C 36.842 230.904,36.958 239.501,37.262 239.689 C 38.052 240.177,43.233 240.331,43.233 239.866 C 43.233 239.576,42.416 239.460,40.755 239.514 C 38.974 239.572,38.174 239.445,37.911 239.064 C 37.540 238.528,37.685 179.107,38.058 178.734 C 38.159 178.633,42.465 178.498,47.628 178.435 C 52.791 178.371,57.213 178.197,57.455 178.047 C 57.771 177.851,57.895 175.208,57.895 168.618 C 57.895 163.581,57.983 159.229,58.092 158.946 C 58.287 158.439,77.539 158.240,78.039 158.741 C 78.143 158.845,78.313 163.646,78.416 169.409 C 78.519 175.172,78.644 182.194,78.693 185.013 C 78.809 191.565,78.497 191.236,84.276 190.917 C 88.106 190.706,171.628 190.741,173.798 190.954 C 174.623 191.036,174.694 191.242,175.006 194.484 C 175.143 195.896,175.314 196.991,175.388 196.918 C 175.785 196.521,176.424 189.355,176.466 184.835 C 176.528 178.121,176.158 178.447,183.459 178.655 C 186.457 178.741,190.855 178.702,193.233 178.568 L 197.556 178.325 194.173 178.242 C 178.925 177.867,157.617 177.555,141.085 177.466 C 137.109 177.445,136.843 177.395,136.416 176.598 C 136.052 175.919,135.615 165.066,135.705 158.969 C 135.722 157.833,134.522 157.778,106.955 157.632 C 71.120 157.443,63.994 157.304,63.364 156.782 C 62.775 156.293,59.161 156.411,58.631 156.936 M65.513 156.661 C 66.084 156.747,66.930 156.745,67.392 156.656 C 67.855 156.566,67.387 156.496,66.353 156.499 C 65.320 156.501,64.941 156.574,65.513 156.661 M88.454 156.669 C 89.650 156.744,91.511 156.743,92.589 156.668 C 93.667 156.592,92.688 156.531,90.414 156.532 C 88.139 156.532,87.257 156.594,88.454 156.669 M269.066 158.503 C 268.469 159.100,268.880 159.329,270.500 159.305 C 271.552 159.289,272.152 159.122,272.069 158.869 C 271.914 158.398,269.469 158.100,269.066 158.503 M197.627 158.929 C 197.239 159.605,197.575 176.159,197.991 176.863 C 198.408 177.571,198.467 177.555,199.495 176.471 C 200.521 175.387,200.706 175.339,204.112 175.257 C 207.826 175.169,209.364 174.824,206.172 174.796 C 205.155 174.787,203.562 174.611,202.632 174.404 C 201.701 174.198,200.750 174.008,200.517 173.982 C 199.491 173.868,199.108 162.945,200.078 161.440 C 200.427 160.897,199.023 158.647,198.336 158.647 C 198.035 158.647,197.716 158.773,197.627 158.929 M208.162 160.220 C 207.931 160.361,207.608 160.393,207.443 160.291 C 207.278 160.189,207.140 160.327,207.137 160.598 C 207.132 160.996,207.070 160.994,206.813 160.588 C 206.638 160.312,206.364 160.086,206.203 160.086 C 206.042 160.086,205.768 160.312,205.593 160.588 C 205.366 160.946,205.273 160.958,205.269 160.632 C 205.265 160.338,205.003 160.271,204.534 160.444 C 202.993 161.014,204.084 161.406,207.487 161.506 C 210.096 161.582,211.230 161.467,211.800 161.068 C 212.552 160.541,212.545 160.526,211.528 160.526 C 210.953 160.526,210.583 160.363,210.706 160.164 C 210.955 159.762,208.834 159.808,208.162 160.220 M218.288 160.332 C 218.165 160.651,217.825 160.794,217.491 160.666 C 217.070 160.504,216.973 160.610,217.141 161.048 C 217.332 161.545,217.095 161.654,215.827 161.654 C 214.373 161.654,214.308 161.700,214.749 162.406 C 215.034 162.863,215.626 163.158,216.256 163.158 C 216.826 163.158,217.293 163.327,217.293 163.534 C 217.293 163.741,216.880 163.910,216.376 163.910 C 215.871 163.910,215.353 163.741,215.226 163.534 C 214.871 162.960,211.893 163.086,211.068 163.710 C 210.667 164.013,209.915 164.284,209.398 164.311 L 208.459 164.361 209.398 164.690 C 210.296 165.004,210.288 165.015,209.208 164.919 C 208.112 164.822,208.082 164.862,208.214 166.244 C 208.403 168.230,211.140 168.507,211.196 166.546 C 211.243 164.865,211.588 164.571,212.507 165.427 C 212.955 165.844,213.580 166.161,213.897 166.132 C 217.875 165.765,223.770 166.226,223.951 166.917 C 224.096 167.472,224.464 167.669,225.354 167.669 C 226.785 167.669,228.348 166.249,227.978 165.284 C 227.773 164.750,228.040 164.662,229.847 164.662 C 231.006 164.662,231.955 164.492,231.955 164.286 C 231.955 164.079,231.058 163.910,229.962 163.910 C 228.867 163.910,227.809 163.751,227.613 163.556 C 227.416 163.362,226.410 163.151,225.376 163.086 C 223.856 162.992,223.506 162.844,223.548 162.312 C 223.577 161.950,223.440 161.654,223.244 161.654 C 223.048 161.654,223.009 161.459,223.156 161.220 C 223.324 160.949,223.259 160.888,222.984 161.058 C 222.742 161.208,222.616 161.445,222.703 161.586 C 222.791 161.727,221.864 161.785,220.643 161.715 C 218.508 161.592,218.432 161.553,218.651 160.681 C 218.899 159.691,218.632 159.435,218.288 160.332 M272.394 160.620 C 272.646 161.430,273.209 162.012,273.749 162.024 C 273.889 162.027,273.749 161.523,273.440 160.902 C 272.781 159.581,272.004 159.372,272.394 160.620 M226.504 160.526 C 226.376 160.733,225.825 160.902,225.279 160.902 C 224.509 160.902,224.387 161.003,224.735 161.351 C 225.265 161.881,227.102 161.367,227.350 160.620 C 227.535 160.062,226.838 159.985,226.504 160.526 M237.004 163.534 C 237.149 164.051,237.364 164.812,237.482 165.226 C 237.657 165.840,237.605 165.892,237.194 165.508 C 236.918 165.249,236.556 165.038,236.391 165.038 C 235.870 165.038,236.065 166.555,236.612 166.765 C 237.030 166.926,237.051 167.188,236.714 168.078 C 236.362 169.013,236.252 169.084,236.031 168.524 C 235.808 167.961,235.763 167.988,235.741 168.703 C 235.726 169.168,235.883 169.549,236.090 169.549 C 236.297 169.549,236.466 169.823,236.466 170.159 C 236.466 170.658,236.568 170.684,237.030 170.301 C 237.552 169.867,237.761 170.041,237.629 170.799 C 237.600 170.969,237.749 171.001,237.961 170.870 C 238.173 170.739,238.346 170.309,238.346 169.914 C 238.346 169.431,238.530 169.267,238.910 169.413 C 240.312 169.951,240.587 169.311,239.836 167.257 C 239.214 165.554,238.733 164.806,237.079 162.970 C 236.874 162.743,236.845 162.967,237.004 163.534 M204.131 163.727 C 203.699 164.248,203.702 164.394,204.156 164.675 C 204.884 165.124,205.427 164.512,204.992 163.734 C 204.669 163.157,204.605 163.156,204.131 163.727 M275.121 165.244 C 275.008 165.441,274.807 166.109,274.675 166.729 L 274.434 167.857 275.023 166.801 C 275.347 166.220,275.547 165.551,275.469 165.316 C 275.386 165.068,275.239 165.038,275.121 165.244 M234.117 166.818 C 231.747 167.005,231.820 167.669,234.211 167.669 C 235.631 167.669,236.090 167.531,236.090 167.105 C 236.090 166.795,236.048 166.572,235.996 166.609 C 235.945 166.646,235.099 166.740,234.117 166.818 M205.163 167.811 C 205.280 168.001,204.932 168.069,204.379 167.964 C 203.257 167.749,203.140 168.124,203.853 169.659 C 204.407 170.852,205.453 171.066,205.154 169.925 C 204.982 169.268,205.143 169.173,206.426 169.173 C 208.573 169.173,208.570 167.813,206.423 167.608 C 205.594 167.529,205.043 167.618,205.163 167.811 M275.952 167.293 C 275.938 167.511,277.307 171.261,277.805 172.368 C 277.991 172.782,278.333 173.741,278.564 174.500 C 278.993 175.902,279.909 176.984,280.319 176.573 C 280.444 176.449,280.263 175.642,279.919 174.781 C 279.574 173.919,279.379 173.128,279.484 173.022 C 279.590 172.916,279.371 172.387,278.997 171.847 C 278.624 171.307,278.211 170.569,278.080 170.207 C 277.950 169.845,277.669 169.549,277.455 169.549 C 277.242 169.549,277.068 169.327,277.068 169.057 C 277.068 168.600,275.978 166.877,275.952 167.293 M209.093 170.207 C 209.283 171.204,210.902 171.312,210.902 170.327 C 210.902 169.742,210.662 169.549,209.935 169.549 C 209.216 169.549,209.000 169.718,209.093 170.207 M236.295 171.654 C 235.672 172.276,235.727 173.751,236.381 173.969 C 236.777 174.101,237.667 172.837,237.821 171.924 C 237.941 171.214,236.916 171.032,236.295 171.654 M229.966 172.556 C 229.790 173.230,229.453 173.308,226.727 173.308 C 224.493 173.308,223.709 173.433,223.778 173.778 C 223.830 174.037,223.677 174.211,223.438 174.166 C 219.641 173.448,213.701 174.418,214.949 175.552 C 215.493 176.045,215.529 176.025,215.296 175.364 C 215.066 174.709,215.090 174.694,215.513 175.234 C 216.377 176.338,223.762 176.379,224.243 175.282 C 224.701 174.239,225.044 174.216,225.651 175.188 C 226.146 175.980,230.443 176.259,232.105 175.607 C 233.187 175.182,233.390 172.556,232.341 172.556 C 231.922 172.556,231.579 172.387,231.579 172.180 C 231.579 171.472,230.163 171.802,229.966 172.556 M227.632 174.060 C 227.763 174.273,227.448 174.436,226.902 174.436 C 226.373 174.436,225.940 174.267,225.940 174.060 C 225.940 173.853,226.268 173.684,226.670 173.684 C 227.071 173.684,227.504 173.853,227.632 174.060 M210.426 174.706 C 209.854 174.792,209.483 175.021,209.602 175.214 C 209.925 175.736,211.038 175.637,211.864 175.012 C 212.638 174.427,212.485 174.395,210.426 174.706 M220.212 175.400 C 220.267 175.427,219.790 175.464,219.152 175.482 C 218.182 175.510,218.067 175.427,218.445 174.971 C 218.808 174.534,219.016 174.518,219.505 174.889 C 219.839 175.143,220.157 175.373,220.212 175.400 M276.974 177.740 C 275.164 177.800,273.684 178.011,273.684 178.210 C 273.684 178.435,267.065 178.591,256.109 178.623 C 246.443 178.651,233.712 178.789,227.820 178.928 C 221.266 179.083,235.162 179.209,263.603 179.252 L 310.101 179.323 312.287 180.243 C 313.490 180.750,316.504 181.858,318.985 182.706 C 323.406 184.217,324.716 184.715,326.029 185.382 C 326.388 185.565,326.940 185.714,327.256 185.714 C 327.571 185.714,328.124 185.871,328.483 186.063 C 329.571 186.644,330.568 186.914,332.092 187.041 C 333.614 187.168,334.782 187.544,337.594 188.808 C 338.524 189.227,339.624 189.700,340.038 189.860 C 340.451 190.020,341.605 190.512,342.602 190.955 C 343.599 191.397,345.246 191.971,346.262 192.231 C 347.278 192.491,348.457 193.077,348.882 193.533 C 349.827 194.547,349.968 194.562,349.899 193.635 C 349.869 193.236,349.710 192.992,349.546 193.093 C 349.382 193.195,349.248 192.996,349.248 192.651 C 349.248 192.254,349.045 192.103,348.695 192.237 C 348.391 192.354,347.895 192.203,347.594 191.901 C 347.293 191.600,346.569 191.351,345.985 191.348 C 345.402 191.345,344.502 191.098,343.985 190.799 C 342.682 190.045,342.433 189.943,341.286 189.692 C 340.732 189.572,339.999 189.194,339.658 188.853 C 339.318 188.512,338.544 188.247,337.940 188.264 C 337.336 188.282,336.842 188.138,336.842 187.945 C 336.842 187.752,336.588 187.594,336.278 187.594 C 335.968 187.594,335.714 187.425,335.714 187.218 C 335.714 187.011,335.373 186.842,334.956 186.842 C 333.898 186.842,331.203 185.967,331.203 185.623 C 331.203 185.466,330.855 185.338,330.429 185.338 C 330.003 185.338,329.759 185.169,329.887 184.962 C 330.023 184.743,329.640 184.586,328.970 184.586 C 328.337 184.586,327.820 184.417,327.820 184.211 C 327.820 184.004,327.322 183.835,326.714 183.835 C 326.106 183.835,325.504 183.665,325.376 183.459 C 325.248 183.252,324.731 183.083,324.226 183.083 C 323.721 183.083,323.308 182.914,323.308 182.707 C 323.308 182.500,322.982 182.331,322.583 182.331 C 322.184 182.331,321.591 182.063,321.264 181.737 C 320.937 181.410,320.462 181.212,320.207 181.297 C 319.952 181.382,319.518 181.226,319.243 180.951 C 318.968 180.676,318.332 180.451,317.830 180.451 C 317.328 180.451,316.917 180.282,316.917 180.075 C 316.917 179.868,316.589 179.699,316.188 179.699 C 315.786 179.699,315.353 179.530,315.226 179.323 C 315.098 179.117,314.493 178.947,313.882 178.947 C 312.872 178.947,311.374 178.358,310.902 177.775 C 310.720 177.550,283.590 177.522,276.974 177.740 M220.776 182.931 C 221.173 183.329,311.329 183.469,311.084 183.072 C 310.940 182.839,294.505 182.707,265.705 182.707 C 240.870 182.707,220.652 182.808,220.776 182.931 M314.693 184.358 C 315.012 184.658,319.668 185.720,319.853 185.536 C 319.959 185.430,319.507 185.236,318.849 185.104 C 318.192 184.973,317.562 184.718,317.451 184.538 C 317.340 184.358,316.639 184.211,315.893 184.211 C 315.147 184.211,314.607 184.277,314.693 184.358 M322.368 186.305 C 324.784 186.977,325.339 186.960,323.735 186.263 C 323.039 185.961,322.024 185.729,321.479 185.748 C 320.776 185.772,321.034 185.933,322.368 186.305 M110.714 194.381 C 110.301 194.542,109.624 194.785,109.211 194.920 L 108.459 195.166 109.211 195.744 C 109.927 196.294,109.905 196.314,108.741 196.158 C 107.941 196.051,107.519 196.153,107.519 196.453 C 107.519 196.705,107.061 197.026,106.501 197.166 C 105.941 197.307,105.107 197.791,104.648 198.241 C 104.188 198.692,102.348 199.821,100.559 200.752 C 88.972 206.778,82.195 218.574,82.158 232.782 C 82.149 236.414,81.990 238.837,81.745 239.082 C 81.477 239.350,75.146 239.502,62.384 239.546 C 49.953 239.589,45.104 239.703,48.308 239.876 C 50.996 240.021,59.740 240.159,67.738 240.183 L 82.280 240.226 82.568 239.380 C 82.727 238.914,82.867 235.827,82.881 232.519 C 82.913 224.552,85.346 215.768,88.347 212.782 C 88.451 212.679,89.269 211.629,90.166 210.449 C 98.782 199.107,115.193 193.558,126.771 198.069 C 127.331 198.288,130.494 198.488,133.800 198.515 C 137.635 198.546,139.857 198.707,139.941 198.960 C 140.031 199.229,140.338 199.214,140.901 198.913 C 141.437 198.626,141.729 198.607,141.729 198.859 C 141.729 199.073,142.406 199.248,143.233 199.248 C 144.094 199.248,144.737 199.068,144.737 198.826 C 144.737 198.527,144.895 198.535,145.279 198.854 C 145.656 199.167,147.310 199.269,150.704 199.187 C 153.389 199.122,155.698 199.182,155.836 199.319 C 155.973 199.457,156.092 203.938,156.100 209.277 C 156.111 216.859,156.177 218.162,156.401 215.226 C 156.558 213.158,156.727 208.802,156.775 205.545 C 156.835 201.500,156.997 199.611,157.285 199.584 C 157.517 199.561,161.571 199.569,166.295 199.600 C 175.177 199.659,176.040 199.525,175.679 198.143 C 175.509 197.494,175.021 197.440,169.233 197.423 C 134.606 197.325,126.205 197.007,124.944 195.746 C 124.803 195.605,121.670 195.489,117.982 195.489 C 112.156 195.489,109.577 195.135,111.936 194.659 C 112.478 194.550,112.494 194.488,112.030 194.308 C 111.720 194.187,111.128 194.220,110.714 194.381 M349.849 196.617 C 349.939 197.754,350.053 199.149,350.101 199.718 C 350.207 200.973,351.504 201.213,351.504 199.978 C 351.504 199.552,351.354 199.296,351.171 199.410 C 350.718 199.689,350.352 198.157,350.618 197.098 C 350.739 196.618,350.662 196.241,350.443 196.241 C 350.228 196.241,349.969 195.860,349.868 195.395 C 349.767 194.930,349.758 195.479,349.849 196.617 M268.337 195.406 C 267.250 195.482,265.581 196.031,264.032 196.825 C 262.640 197.537,261.091 198.120,260.589 198.120 C 259.635 198.120,257.696 199.156,255.904 200.623 C 255.327 201.096,254.123 201.806,253.231 202.201 C 252.094 202.704,251.534 203.212,251.362 203.898 C 251.227 204.436,249.856 206.274,248.316 207.983 C 245.606 210.991,243.404 214.677,242.471 217.766 C 241.892 219.685,242.234 220.488,242.845 218.643 C 243.742 215.933,246.880 210.335,248.028 209.398 C 248.408 209.088,249.782 207.660,251.082 206.225 C 254.209 202.773,256.017 201.445,259.332 200.168 C 260.847 199.585,262.285 198.824,262.528 198.478 C 262.771 198.131,263.562 197.757,264.286 197.645 C 265.009 197.534,266.786 197.159,268.233 196.812 C 271.354 196.063,280.675 195.882,282.707 196.531 C 283.430 196.762,285.038 197.236,286.278 197.585 C 291.074 198.932,295.559 201.531,299.816 205.431 C 300.618 206.166,301.395 206.767,301.543 206.767 C 301.881 206.767,305.783 212.666,307.263 215.414 C 309.395 219.372,309.550 219.748,309.833 221.617 C 309.990 222.650,310.379 224.680,310.698 226.128 C 311.071 227.818,311.278 230.675,311.278 234.116 C 311.278 237.063,311.405 239.474,311.560 239.474 C 311.946 239.475,311.431 226.116,310.973 224.248 C 310.770 223.421,310.483 222.152,310.335 221.429 C 309.836 218.989,308.979 216.739,307.901 215.038 C 307.311 214.107,306.314 212.246,305.685 210.902 C 304.117 207.550,301.849 204.427,300.533 203.807 C 299.930 203.523,298.844 202.740,298.120 202.066 C 297.397 201.392,296.128 200.530,295.301 200.151 C 294.474 199.773,292.782 198.880,291.541 198.168 C 290.301 197.457,288.524 196.741,287.594 196.577 C 286.664 196.414,284.718 196.020,283.271 195.703 C 280.819 195.165,273.837 195.026,268.337 195.406 M115.977 201.013 C 97.594 203.088,85.211 218.231,88.182 235.003 C 88.526 236.945,88.890 239.253,88.990 240.132 C 89.091 241.010,89.326 241.729,89.512 241.729 C 89.997 241.729,89.943 241.161,89.059 236.996 C 88.076 232.364,88.271 226.128,89.484 223.385 C 89.892 222.463,90.226 221.553,90.226 221.363 C 90.226 219.037,94.788 212.360,98.467 209.303 C 104.318 204.440,107.430 202.998,113.997 202.103 C 119.592 201.341,123.620 201.859,129.511 204.099 C 143.328 209.351,150.411 224.715,146.405 240.745 C 146.196 241.582,146.253 241.788,146.657 241.652 C 146.975 241.545,147.133 241.082,147.060 240.475 C 146.938 239.465,147.530 239.072,147.859 239.944 C 147.956 240.202,147.953 239.733,147.852 238.901 C 147.751 238.069,147.857 235.838,148.087 233.944 C 148.735 228.613,146.121 215.789,144.386 215.789 C 144.266 215.789,143.929 215.248,143.635 214.585 C 142.704 212.480,136.186 206.281,133.647 205.084 C 128.582 202.697,125.078 201.513,122.429 201.294 C 117.959 200.924,117.096 200.887,115.977 201.013 M273.308 200.987 C 260.292 202.397,251.109 210.112,246.741 223.308 C 244.647 229.634,247.009 244.317,250.899 249.160 C 253.078 251.873,258.100 256.421,260.150 257.538 C 261.081 258.044,261.898 258.586,261.967 258.741 C 262.120 259.083,263.158 259.120,263.158 258.782 C 263.158 258.421,261.909 257.544,261.375 257.531 C 260.882 257.518,260.009 256.832,257.182 254.240 C 256.230 253.367,255.282 252.642,255.075 252.628 C 253.820 252.547,250.471 247.096,248.378 241.729 L 246.839 237.782 246.830 231.391 L 246.821 225.000 248.275 221.262 C 251.299 213.487,255.477 208.650,262.314 205.006 C 269.062 201.409,280.122 200.649,285.427 203.419 C 285.786 203.606,286.268 203.759,286.498 203.759 C 288.259 203.759,293.640 207.137,296.546 210.066 C 301.977 215.541,304.088 219.897,305.235 228.000 C 305.889 232.615,304.135 242.726,302.191 245.547 C 301.813 246.096,301.504 246.730,301.504 246.957 C 301.504 247.183,301.335 247.368,301.128 247.368 C 300.921 247.368,300.752 247.545,300.752 247.760 C 300.752 247.975,300.409 248.519,299.991 248.969 C 299.572 249.418,299.312 250.001,299.413 250.264 C 299.514 250.527,299.453 250.703,299.276 250.653 C 299.099 250.604,297.937 251.537,296.693 252.726 C 295.450 253.914,294.324 254.887,294.193 254.887 C 294.061 254.887,293.749 255.054,293.499 255.257 C 291.643 256.771,290.627 257.446,289.568 257.872 C 288.318 258.373,287.927 259.023,288.874 259.023 C 289.563 259.023,292.297 257.559,293.227 256.692 C 293.626 256.320,294.054 256.015,294.177 256.015 C 294.650 256.015,296.992 253.925,296.992 253.503 C 296.992 253.258,297.333 252.950,297.750 252.818 C 298.166 252.686,298.410 252.420,298.292 252.229 C 298.173 252.037,298.311 251.880,298.598 251.880 C 298.886 251.880,299.361 251.419,299.655 250.856 C 299.948 250.293,300.738 249.346,301.410 248.750 C 302.082 248.154,302.632 247.346,302.632 246.954 C 302.632 246.561,302.801 246.241,303.008 246.241 C 303.214 246.241,303.383 245.916,303.383 245.520 C 303.383 245.124,303.576 244.735,303.811 244.657 C 304.046 244.579,304.267 243.846,304.302 243.028 C 304.337 242.210,304.737 239.789,305.191 237.647 C 309.459 217.484,293.235 198.828,273.308 200.987 M304.639 202.729 C 304.308 203.265,306.387 205.041,306.829 204.599 C 307.335 204.093,306.873 203.251,305.821 202.761 C 305.164 202.455,304.814 202.446,304.639 202.729 M114.314 210.157 C 108.381 211.414,102.744 214.932,100.876 218.545 C 99.973 220.291,100.456 220.008,102.261 217.734 C 113.221 203.923,136.452 210.964,138.728 228.788 L 139.060 231.391 138.927 228.565 C 138.792 225.727,138.469 224.691,136.397 220.453 C 132.782 213.061,122.731 208.375,114.314 210.157 M271.992 210.113 C 262.797 211.906,255.110 220.138,255.313 227.976 C 255.361 229.856,255.367 229.846,255.657 227.359 C 257.274 213.473,274.858 205.799,287.092 213.641 C 291.099 216.209,295.487 221.835,295.488 224.405 C 295.489 224.698,295.585 224.841,295.702 224.724 C 295.820 224.606,295.664 223.661,295.355 222.623 C 292.867 214.244,281.639 208.232,271.992 210.113 M355.681 218.660 C 355.962 218.998,356.297 220.140,356.426 221.198 L 356.661 223.120 356.714 220.583 C 356.763 218.230,356.709 218.045,355.969 218.045 C 355.273 218.045,355.236 218.124,355.681 218.660 M241.178 223.254 C 240.807 224.879,240.589 226.444,240.694 226.732 C 240.897 227.290,240.979 226.989,241.713 222.987 C 242.339 219.574,241.977 219.754,241.178 223.254 M98.679 222.324 C 98.333 222.852,98.123 223.501,98.212 223.766 C 98.304 224.039,98.658 223.702,99.027 222.991 C 99.816 221.472,99.559 220.980,98.679 222.324 M155.726 223.192 C 155.678 224.265,155.495 225.233,155.319 225.342 C 155.143 225.450,154.987 228.084,154.973 231.195 C 154.953 235.420,155.058 236.783,155.387 236.586 C 155.629 236.441,155.573 236.641,155.263 237.030 C 154.935 237.443,154.895 237.621,155.169 237.456 C 155.465 237.278,155.639 237.391,155.639 237.760 C 155.639 238.082,155.449 238.346,155.217 238.346 C 154.926 238.346,154.940 238.520,155.263 238.910 C 155.521 239.220,155.985 239.474,156.295 239.474 C 156.722 239.474,156.758 239.352,156.444 238.974 C 156.176 238.651,155.991 235.431,155.921 229.857 C 155.861 225.118,155.773 222.119,155.726 223.192 M97.398 226.187 C 96.929 227.875,96.866 233.429,97.307 234.124 C 97.474 234.387,97.541 233.203,97.457 231.493 C 97.372 229.783,97.477 227.627,97.690 226.702 C 98.171 224.616,97.945 224.217,97.398 226.187 M296.106 226.363 C 296.284 227.061,296.429 229.103,296.429 230.902 C 296.429 234.355,296.821 234.817,297.228 231.845 C 297.484 229.981,296.775 225.706,296.147 225.318 C 295.918 225.176,295.903 225.561,296.106 226.363 M240.321 232.895 C 240.418 239.474,240.418 239.472,237.854 239.479 C 236.780 239.483,235.648 239.649,235.338 239.850 C 234.943 240.105,235.505 240.212,237.218 240.208 C 240.960 240.198,240.982 240.161,240.951 233.981 C 240.936 231.109,240.770 228.421,240.581 228.008 C 240.360 227.523,240.268 229.261,240.321 232.895 M255.235 232.331 C 255.058 233.705,255.714 237.436,256.213 237.893 C 256.372 238.039,256.377 237.735,256.224 237.218 C 256.071 236.701,255.824 235.094,255.675 233.647 C 255.463 231.580,255.368 231.298,255.235 232.331 M295.143 238.194 C 294.523 240.657,293.437 242.647,291.609 244.671 C 290.117 246.322,290.104 246.356,291.353 245.336 C 293.657 243.454,296.652 237.504,295.750 236.602 C 295.659 236.511,295.386 237.228,295.143 238.194 M356.394 238.158 C 356.103 239.261,356.147 240.244,356.473 239.918 C 356.670 239.721,356.755 239.160,356.662 238.671 C 356.569 238.182,356.449 237.951,356.394 238.158 M158.769 239.721 C 159.141 240.093,170.681 240.203,171.616 239.843 C 172.030 239.683,169.248 239.530,165.433 239.501 C 161.619 239.473,158.620 239.572,158.769 239.721 M192.628 239.746 C 192.997 240.115,209.398 240.134,209.398 239.765 C 209.398 239.605,205.564 239.474,200.877 239.474 C 196.190 239.474,192.478 239.596,192.628 239.746 M210.996 239.748 C 211.772 239.829,213.040 239.829,213.816 239.748 C 214.591 239.666,213.957 239.600,212.406 239.600 C 210.855 239.600,210.221 239.666,210.996 239.748 M312.574 239.817 C 312.864 240.286,335.623 240.302,335.912 239.834 C 336.052 239.607,331.723 239.474,324.248 239.474 C 317.161 239.474,312.447 239.612,312.574 239.817 M336.466 239.850 C 336.466 240.056,336.720 240.226,337.030 240.226 C 337.340 240.226,337.594 240.056,337.594 239.850 C 337.594 239.643,337.340 239.474,337.030 239.474 C 336.720 239.474,336.466 239.643,336.466 239.850 M339.008 239.740 C 339.476 239.829,340.152 239.826,340.512 239.732 C 340.871 239.638,340.489 239.564,339.662 239.568 C 338.835 239.573,338.541 239.650,339.008 239.740 M351.227 239.743 C 351.798 239.830,352.644 239.828,353.107 239.738 C 353.569 239.649,353.102 239.578,352.068 239.581 C 351.034 239.584,350.656 239.657,351.227 239.743 M257.143 240.028 C 257.143 240.495,258.984 243.408,259.358 243.533 C 259.593 243.611,259.249 242.814,258.595 241.762 C 257.496 239.994,257.143 239.572,257.143 240.028 M89.850 243.023 C 89.850 243.552,90.019 243.985,90.226 243.985 C 90.432 243.985,90.602 244.335,90.602 244.763 C 90.602 245.191,91.109 246.279,91.729 247.180 C 92.350 248.082,92.857 248.933,92.857 249.071 C 92.857 249.209,93.359 249.791,93.972 250.364 C 94.585 250.936,94.980 251.512,94.849 251.642 C 94.718 251.773,94.821 251.880,95.077 251.880 C 95.598 251.880,96.613 252.787,96.623 253.263 C 96.632 253.654,99.457 256.015,99.916 256.015 C 100.105 256.015,100.566 256.353,100.940 256.767 C 101.616 257.514,102.632 257.788,102.632 257.224 C 102.632 257.062,102.086 256.607,101.420 256.213 C 99.442 255.045,92.857 248.241,92.857 247.366 C 92.857 247.160,92.688 246.992,92.481 246.992 C 92.274 246.992,92.105 246.739,92.105 246.429 C 92.105 246.118,91.936 245.865,91.729 245.865 C 91.523 245.865,91.353 245.536,91.353 245.135 C 91.353 244.734,91.184 244.301,90.977 244.173 C 90.771 244.045,90.602 243.622,90.602 243.233 C 90.602 242.844,90.432 242.421,90.226 242.293 C 90.012 242.161,89.850 242.477,89.850 243.023 M145.771 242.320 C 145.616 242.478,145.489 242.917,145.489 243.296 C 145.489 243.675,145.320 243.985,145.113 243.985 C 144.906 243.985,144.737 244.313,144.737 244.715 C 144.737 245.116,144.906 245.549,145.113 245.677 C 145.320 245.804,145.489 245.575,145.489 245.166 C 145.489 244.758,145.673 244.362,145.898 244.287 C 146.123 244.212,146.249 243.674,146.180 243.092 C 146.110 242.510,145.926 242.162,145.771 242.320 M101.128 243.609 C 101.570 244.229,102.015 244.737,102.119 244.737 C 102.222 244.737,101.945 244.229,101.504 243.609 C 101.062 242.989,100.616 242.481,100.513 242.481 C 100.409 242.481,100.686 242.989,101.128 243.609 M262.111 246.824 C 263.086 247.827,263.966 248.565,264.067 248.464 C 264.169 248.363,263.371 247.542,262.295 246.640 L 260.338 244.999 262.111 246.824 M143.985 246.209 C 143.985 246.606,143.848 246.986,143.681 247.055 C 143.514 247.124,142.806 248.026,142.108 249.060 C 141.410 250.094,140.664 251.058,140.449 251.201 C 140.235 251.345,140.171 251.575,140.308 251.711 C 140.602 252.005,142.481 250.212,142.481 249.638 C 142.481 249.420,142.989 248.710,143.609 248.061 C 144.705 246.914,145.122 245.489,144.361 245.489 C 144.154 245.489,143.985 245.813,143.985 246.209 M285.902 248.872 C 285.774 249.079,285.924 249.248,286.234 249.248 C 286.544 249.248,286.902 249.079,287.030 248.872 C 287.158 248.665,287.009 248.496,286.699 248.496 C 286.388 248.496,286.030 248.665,285.902 248.872 M267.131 249.980 C 267.535 250.375,269.854 250.986,269.506 250.605 C 269.379 250.466,268.714 250.192,268.028 249.995 C 267.308 249.789,266.928 249.782,267.131 249.980 M281.084 250.997 C 280.949 251.131,279.779 251.362,278.483 251.509 C 276.155 251.774,276.149 251.777,278.008 251.800 C 279.680 251.820,283.401 250.851,281.924 250.780 C 281.596 250.765,281.218 250.862,281.084 250.997 M138.485 253.165 C 137.838 253.844,136.443 254.960,135.384 255.646 C 133.553 256.832,132.991 257.519,133.850 257.519 C 134.066 257.519,134.447 257.347,134.696 257.137 C 134.946 256.927,136.248 255.951,137.590 254.969 C 138.932 253.988,140.086 252.891,140.155 252.532 C 140.340 251.574,139.812 251.774,138.485 253.165 M103.008 257.759 C 103.008 258.180,104.298 258.998,104.981 259.011 C 105.343 259.017,105.639 258.853,105.639 258.647 C 105.639 258.440,105.311 258.271,104.909 258.271 C 104.508 258.271,104.075 258.102,103.947 257.895 C 103.690 257.479,103.008 257.380,103.008 257.759 M130.921 258.030 C 130.456 258.260,130.075 258.578,130.075 258.736 C 130.075 258.893,129.747 259.023,129.345 259.023 C 128.944 259.023,128.511 259.192,128.383 259.398 C 128.256 259.605,127.738 259.774,127.233 259.774 C 126.729 259.774,126.316 259.944,126.316 260.150 C 126.316 260.357,126.823 260.526,127.444 260.526 C 128.064 260.526,128.573 260.399,128.574 260.244 C 128.578 259.858,130.442 259.023,131.300 259.023 C 131.685 259.023,131.895 258.853,131.767 258.647 C 131.639 258.440,131.883 258.271,132.309 258.271 C 132.734 258.271,133.083 258.102,133.083 257.895 C 133.083 257.419,132.021 257.485,130.921 258.030 M106.015 259.183 C 106.015 260.057,110.253 260.897,110.734 260.118 C 110.902 259.846,110.536 259.748,109.637 259.826 C 108.895 259.890,108.081 259.735,107.828 259.482 C 107.400 259.054,106.015 258.825,106.015 259.183 M263.910 259.398 C 263.910 259.605,264.248 259.774,264.662 259.774 C 265.075 259.774,265.414 259.909,265.414 260.074 C 265.414 260.238,266.006 260.413,266.729 260.461 C 267.453 260.510,268.045 260.375,268.045 260.162 C 268.045 259.949,267.548 259.774,266.939 259.774 C 266.331 259.774,265.729 259.605,265.602 259.398 C 265.474 259.192,265.041 259.023,264.639 259.023 C 264.238 259.023,263.910 259.192,263.910 259.398 M286.422 259.305 C 286.397 259.460,286.384 259.674,286.393 259.782 C 286.401 259.889,285.745 259.913,284.933 259.836 C 284.023 259.749,283.459 259.854,283.459 260.111 C 283.459 260.693,286.137 260.610,286.936 260.003 C 287.298 259.728,287.594 259.395,287.594 259.263 C 287.594 258.923,286.476 258.962,286.422 259.305 M111.466 260.902 C 111.594 261.109,112.365 261.278,113.180 261.278 C 113.995 261.278,114.662 261.109,114.662 260.902 C 114.662 260.695,113.890 260.526,112.948 260.526 C 111.901 260.526,111.324 260.673,111.466 260.902 M122.556 260.902 C 122.556 261.109,123.148 261.278,123.872 261.278 C 124.596 261.278,125.188 261.109,125.188 260.902 C 125.188 260.695,124.596 260.526,123.872 260.526 C 123.148 260.526,122.556 260.695,122.556 260.902 M268.586 260.865 C 268.726 261.092,269.687 261.278,270.721 261.278 C 271.755 261.278,272.514 261.418,272.409 261.589 C 272.303 261.760,273.985 261.940,276.146 261.990 C 281.173 262.105,281.381 261.426,276.410 261.131 C 274.394 261.012,271.751 260.810,270.537 260.683 C 268.978 260.519,268.405 260.573,268.586 260.865 M280.451 260.902 C 280.451 261.109,281.043 261.278,281.767 261.278 C 282.491 261.278,283.083 261.109,283.083 260.902 C 283.083 260.695,282.491 260.526,281.767 260.526 C 281.043 260.526,280.451 260.695,280.451 260.902 M115.038 261.654 C 115.038 262.114,120.547 262.114,121.617 261.654 C 122.108 261.443,121.101 261.322,118.703 261.305 C 116.492 261.289,115.038 261.427,115.038 261.654 " stroke="none" fill="#a38986" fill-rule="evenodd"></path></g></svg>